# AST/ASF file generated using VICON BodyLanguage
# -----------------------------------------------
:version 1.10
:name VICON
:units
  mass 1.0
  length 0.45
  angle deg
:documentation
   .ast/.asf automatically generated from VICON data using
   VICON BodyBuilder and BodyLanguage model FoxedUp or BRILLIANT.MOD
:root
   order TX TY TZ RX RY RZ
   axis XYZ
   position 0 0 0  
   orientation 0 0 0 
:bonedata
  begin
     id 1 
     name lhipjoint
     direction 0.734343 -0.627749 0.258209 
     length 2.5437 
     axis 0 0 0  XYZ
  end
  begin
     id 2 
     name lfemur
     direction 0.34202 -0.939693 0  
     length 6.7391  
     axis 0 0 20  XYZ
    dof rx ry rz
    limits (-160.0 20.0)
           (-70.0 70.0)
           (-60.0 70.0)
  end
  begin
     id 3 
     name ltibia
     direction 0.34202 -0.939693 0   
     length 7.21536   
     axis 0 0 20   XYZ
    dof rx
    limits (-10.0 170.0)
  end
  begin
     id 4 
     name lfoot
     direction 0.0489572 -0.134509 0.989702   
     length 1.61313   
     axis -90 7.62852e-016 20   XYZ
    dof rx rz
    limits (-45.0 90.0)
           (-70.0 20.0)
  end
  begin
     id 5 
     name ltoes
     direction 1.53451e-011 -4.21692e-011 1   
     length 0.823104   
     axis -90 7.62852e-016 20   XYZ
    dof rx
    limits (-90.0 20.0)
  end
  begin
     id 6 
     name rhipjoint
     direction -0.746398 -0.615468 0.253157   
     length 2.59446  
     axis 0 0 0  XYZ 
  end
  begin
     id 7 
     name rfemur
     direction -0.34202 -0.939693 0   
     length 6.7075   
     axis 0 0 -20   XYZ
    dof rx ry rz
    limits (-160.0 20.0)
           (-70.0 70.0)
           (-70.0 60.0)
  end
  begin
     id 8 
     name rtibia
     direction -0.34202 -0.939693 0   
     length 7.27262   
     axis 0 0 -20   XYZ
    dof rx
    limits (-10.0 170.0)
 end
 begin
     id 9 
     name rfoot
     direction -0.0455203 -0.125066 0.991104   
     length 1.91095  
     axis -90 -7.62852e-016 -20   XYZ
    dof rx rz
    limits (-45.0 90.0)
           (-20.0 70.0)
  end
  begin
     id 10 
     name rtoes
     direction -1.53601e-011 -4.21913e-011 1   
     length 0.969037   
     axis -90 -7.62852e-016 -20   XYZ
    dof rx
    limits (-90.0 20.0)
  end
  begin
     id 11 
     name lowerback
     direction 0.0181546 0.999122 -0.0377542   
     length 1.99916   
     axis 0 0 0   XYZ
    dof rx ry rz
    limits (-20.0 45.0)
           (-30.0 30.0)
           (-30.0 30.0)
  end
  begin
     id 12 
     name upperback
     direction 0.0203486 0.99589 0.0882534   
     length 1.951   
     axis 0 0 0   XYZ
    dof rx ry rz
    limits (-20.0 45.0)
           (-30.0 30.0)
           (-30.0 30.0)
  end
  begin
     id 13 
     name thorax
     direction 0.0131685 0.994241 0.106355   
     length 1.97461   
     axis 0 0 0   XYZ
    dof rx ry rz
    limits (-20.0 45.0)
           (-30.0 30.0)
           (-30.0 30.0)
  end
  begin
     id 14 
     name lowerneck
     direction -0.0281395 0.999325 0.023617   
     length 1.7959   
     axis 0 0 0   XYZ
    dof rx ry rz
    limits (-20.0 45.0)
           (-30.0 30.0)
           (-30.0 30.0)
  end
  begin
     id 15 
     name upperneck
     direction 0.0288721 0.991984 -0.123019   
     length 1.79917   
     axis 0 0 0   XYZ
    dof rx ry rz
    limits (-20.0 45.0)
           (-30.0 30.0)
           (-30.0 30.0)
  end
  begin
     id 16
     name head
     direction 0.0133797 0.998944 -0.0439492  
     length 1.80902  
     axis 0 0 0   XYZ
    dof rx ry rz
    limits (-20.0 45.0)
           (-30.0 30.0)
           (-30.0 30.0)
  end
  begin
     id 17 
     name lclavicle
     direction 0.919195 0.377107 0.113449  
     length 3.17815  
     axis 0 0 0   XYZ
    dof ry rz
    limits (-20.0 10.0)
           (0.0 20.0)
  end
  begin
     id 18 
     name lhumerus
     direction 1 -4.48959e-011 2.13129e-027   
     length 4.84137   
     axis 180 -30 -90   XYZ
    dof rx ry rz
    limits (-60.0 90.0)
           (-90.0 90.0)
           (-90.0 90.0)
  end
  begin
     id 19
     name lradius
     direction 1 -4.48957e-011 -6.30627e-028   
     length 3.2452   
     axis 180 -30 -90   XYZ
    dof rx
    limits (-10.0 170.0)
  end
  begin
     id 20
     name lwrist
     direction 1 -4.4901e-011 9.13299e-027   
     length 1.6226   
     axis -6.84618e-015 90 90   XYZ
    dof ry
    limits (-180.0 0.0)
 end
  begin
     id 21 
     name lhand
     direction 1 -4.48816e-011 1.82293e-026   
     length 0.521221   
     axis -1.16502e-014 90 90   XYZ
    dof rx rz
    limits (-90.0 90.0)
           (-45.0 45.0)
  end
  begin
     id 22 
     name lfingers
     direction 1 -4.49108e-011 3.65687e-026   
     length 0.420221   
     axis -2.33008e-014 90 90   XYZ
    dof rx
    limits (0.0 90.0)
  end
  begin
     id 23
     name lthumb
     direction 0.707107 -6.34943e-011 0.707107   
     length 0.603356   
     axis -90 45 5.69224e-014   XYZ
    dof rx rz
    limits (-45.0 45.0)
           (-45.0 45.0)
  end
  begin
     id 24 
     name rclavicle
     direction -0.90847 0.38596 0.160368   
     length 3.12973  
     axis 0 0 0   XYZ 
    dof ry rz
    limits (-10.0 20.0)
           (-20.0 0.0)
  end
  begin
     id 25 
     name rhumerus
     direction -1 -4.48974e-011 4.47268e-028  
     length 4.72284   
     axis 180 30 90   XYZ
    dof rx ry rz
    limits (-90.0 60.0)
           (-90.0 90.0)
           (-90.0 90.0)
  end
  begin
     id 26 
     name rradius
     direction -1 -4.48969e-011 3.43203e-027   
     length 3.23459   
     axis 180 30 90   XYZ
    dof rx
    limits (-10.0 170.0)
  end
  begin
     id 27 
     name rwrist
     direction -1 -4.48969e-011 9.12911e-027   
     length 1.6173   
     axis -6.84618e-015 -90 -90   XYZ
    dof ry
    limits (-180.0 0.0)
  end
  begin
     id 28
     name rhand
     direction -1 -4.49194e-011 1.83006e-026   
     length 0.307416   
     axis -1.16502e-014 -90 -90   XYZ
    dof rx rz
    limits (-90.0 90.0)
           (-45.0 45.0)
  end
  begin
     id 29
     name rfingers
     direction -1 -4.48423e-011 3.63103e-026   
     length 0.247847   
     axis -2.33008e-014 -90 -90   XYZ
    dof rx
    limits (0.0 90.0)
  end
  begin
     id 30
     name rthumb
     direction -0.707107 -6.34802e-011 0.707107   
     length 0.35586   
     axis -90 -45 -5.69224e-014   XYZ
    dof rx rz
    limits (-45.0 45.0)
           (-45.0 45.0)
  end
:hierarchy
  begin
    root lhipjoint rhipjoint lowerback
    lhipjoint lfemur
    lfemur ltibia
    ltibia lfoot
    lfoot ltoes
    rhipjoint rfemur
    rfemur rtibia
    rtibia rfoot
    rfoot rtoes
    lowerback upperback
    upperback thorax
    thorax lowerneck lclavicle rclavicle
    lowerneck upperneck
    upperneck head
    lclavicle lhumerus
    lhumerus lradius
    lradius lwrist
    lwrist lhand lthumb
    lhand lfingers
    rclavicle rhumerus
    rhumerus rradius
    rradius rwrist
    rwrist rhand rthumb
    rhand rfingers
  end

#!OML:ASF H:\Terrain\Patient Classification 1\Animal1\Tuesday\Animal1.ASF
:FULLY-SPECIFIED
:DEGREES
589
root 11.2591 16.8998 -6.23995 -25.9269 74.7198 -28.9307
lowerback -9.47939 4.03261 1.74266
upperback -8.50856 5.52553 -4.00561
thorax -3.03074 2.73377 -4.76529
lowerneck -3.22779 4.62423 -3.36557
upperneck 17.8505 5.38371 11.1322
head 5.45312 3.41356 4.3818
rclavicle -2.54444e-014 4.77083e-015
rhumerus 10.0306 1.54027 14.584
rradius 25.2878
rwrist -26.4629
rhand 8.55894 4.80731
rfingers 7.12502
rthumb 33.7583 -22.0298
lclavicle -2.54444e-014 4.77083e-015
lhumerus -31.9339 16.8019 6.21842
lradius 29.7827
lwrist -26.0067
lhand 18.4274 34.9291
lfingers 7.12502
lthumb 43.0674 59.1512
rfemur -12.0233 -9.95029 32.0876
rtibia 46.8092
rfoot 24.3948 -6.33953
rtoes -15.7534
lfemur -25.8085 19.0928 -21.4984
ltibia 47.6458
lfoot -11.5104 20.6428
ltoes 34.3937
590
root 11.3041 16.9003 -6.26937 -26.5853 75.3104 -29.6914
lowerback -9.52848 3.96042 1.38064
upperback -8.60725 5.46083 -3.93363
thorax -3.15181 2.72039 -4.49656
lowerneck -3.12796 4.55766 -3.63845
upperneck 17.8247 5.30629 11.2243
head 5.42094 3.3635 4.44877
rclavicle 4.21423e-014 7.63333e-014
rhumerus 10.0591 2.52526 15.31
rradius 25.4915
rwrist -27.4347
rhand 8.08522 5.09069
rfingers 7.12502
rthumb 33.3081 -21.844
lclavicle 4.21423e-014 7.63333e-014
lhumerus -32.2696 16.588 6.52673
lradius 29.7658
lwrist -26.0255
lhand 17.808 34.6664
lfingers 7.12502
lthumb 42.4879 59.0908
rfemur -11.9709 -9.7704 31.8219
rtibia 46.8253
rfoot 24.2807 -7.28524
rtoes -11.563
lfemur -25.814 18.8489 -21.8049
ltibia 47.5816
lfoot -10.6329 20.665
ltoes 31.4466
591
root 11.351 16.8937 -6.30436 -27.5192 75.8737 -30.6721
lowerback -9.5754 3.94727 1.30956
upperback -8.67212 5.45483 -3.97254
thorax -3.1983 2.72182 -4.49882
lowerneck -3.11449 4.50193 -3.91708
upperneck 17.9359 5.2196 11.4773
head 5.44123 3.32766 4.57639
rclavicle -2.94201e-014 -2.70347e-014
rhumerus 10.0228 3.00237 15.6594
rradius 25.579
rwrist -27.8282
rhand 8.12619 5.31015
rfingers 7.12502
rthumb 33.347 -21.6162
lclavicle -2.94201e-014 -2.70347e-014
lhumerus -32.5536 16.3773 6.71622
lradius 29.8441
lwrist -26.2348
lhand 17.6685 34.7543
lfingers 7.12502
lthumb 42.3572 59.2236
rfemur -11.8394 -9.69161 31.6145
rtibia 46.8024
rfoot 23.9739 -6.10043
rtoes -16.2283
lfemur -25.7196 18.48 -22.0357
ltibia 47.5255
lfoot -9.90102 20.7302
ltoes 27.4043
592
root 11.3961 16.8789 -6.34417 -29.8781 76.3218 -33.1415
lowerback -9.6479 3.92028 1.684
upperback -8.75534 5.40346 -4.01779
thorax -3.21726 2.67995 -4.75889
lowerneck -3.11124 4.47015 -3.45602
upperneck 18.0711 5.18384 11.1543
head 5.51295 3.32315 4.40164
rclavicle -1.03368e-014 -7.95139e-015
rhumerus 10.1052 2.3614 15.2918
rradius 25.4792
rwrist -27.2324
rhand 8.41529 5.08952
rfingers 7.12502
rthumb 33.6218 -21.7774
lclavicle -1.03368e-014 -7.95139e-015
lhumerus -32.9109 16.6524 6.53925
lradius 30.0176
lwrist -26.9057
lhand 18.3047 34.788
lfingers 7.12502
lthumb 42.9527 59.0506
rfemur -11.7668 -9.75359 31.8202
rtibia 46.7435
rfoot 24.2176 -4.48315
rtoes -21.7964
lfemur -25.7071 17.883 -21.9107
ltibia 47.517
lfoot -9.0929 20.8125
ltoes 24.5066
593
root 11.4427 16.8647 -6.38134 -32.1349 76.7554 -35.5251
lowerback -9.73325 3.89841 1.9046
upperback -8.8251 5.36793 -4.04855
thorax -3.22818 2.65359 -4.9153
lowerneck -3.24063 4.46831 -2.70656
upperneck 18.2994 5.21082 10.4812
head 5.65418 3.34633 4.07895
rclavicle 3.18055e-014 -7.95139e-015
rhumerus 10.1253 1.66357 14.9386
rradius 25.3713
rwrist -26.7672
rhand 8.37264 5.16394
rfingers 7.12502
rthumb 33.5813 -21.7118
lclavicle 3.18055e-014 -7.95139e-015
lhumerus -33.1013 16.9662 6.46134
lradius 29.9842
lwrist -27.2174
lhand 18.1176 34.5127
lfingers 7.12502
lthumb 42.7776 58.8367
rfemur -11.7358 -9.86441 32.0299
rtibia 46.6695
rfoot 24.8361 -2.57918
rtoes -26.6911
lfemur -25.7116 17.3163 -21.7938
ltibia 47.5537
lfoot -7.98395 20.6189
ltoes 22.3965
594
root 11.4927 16.8641 -6.4158 -33.197 77.2739 -36.6164
lowerback -9.73266 3.9147 1.74094
upperback -8.87129 5.40579 -4.10148
thorax -3.28268 2.68047 -4.87938
lowerneck -3.20159 4.45174 -2.54273
upperneck 18.2378 5.20913 10.2769
head 5.64107 3.33962 3.98351
rclavicle 3.97569e-015 5.08889e-014
rhumerus 9.98645 2.15374 15.259
rradius 25.4648
rwrist -27.4285
rhand 8.13252 5.15247
rfingers 7.12502
rthumb 33.353 -21.7726
lclavicle 3.97569e-015 5.08889e-014
lhumerus -33.1209 17.0203 6.6436
lradius 29.8048
lwrist -27.0487
lhand 17.6296 34.3833
lfingers 7.12502
lthumb 42.3208 58.8649
rfemur -11.6043 -9.7646 31.8244
rtibia 46.6549
rfoot 25.1955 -2.10568
rtoes -27.6176
lfemur -25.5499 16.7577 -21.9172
ltibia 47.582
lfoot -7.66161 20.146
ltoes 22.0609
595
root 11.5419 16.8774 -6.45279 -34.1142 77.8565 -37.5642
lowerback -9.69678 3.95023 1.52467
upperback -8.91328 5.47222 -4.16329
thorax -3.35301 2.72381 -4.82368
lowerneck -2.9922 4.32997 -2.7068
upperneck 17.9752 5.0495 10.4032
head 5.52387 3.25013 4.02686
rclavicle -2.94201e-014 2.06736e-014
rhumerus 9.84352 2.51357 15.6503
rradius 25.5571
rwrist -27.7087
rhand 8.03414 5.06251
rfingers 7.12502
rthumb 33.2595 -21.8826
lclavicle -2.94201e-014 2.06736e-014
lhumerus -33.1127 16.893 7.00027
lradius 29.6712
lwrist -26.5837
lhand 17.2134 34.3632
lfingers 7.12502
lthumb 41.9309 58.9764
rfemur -11.5043 -9.55375 31.5054
rtibia 46.7281
rfoot 25.6294 -3.0703
rtoes -24.9968
lfemur -25.3753 16.1499 -22.0904
ltibia 47.541
lfoot -7.4741 19.5983
ltoes 21.9793
